<svg width="31" height="31" viewBox="0 0 31 31" fill="none" xmlns="http://www.w3.org/2000/svg">
<path d="M1.0625 17.9503C1.0625 17.9503 5.1875 16.1875 8.625 16.1875C11.0498 16.1875 13.7125 17.1624 15.4959 17.9661C16.864 18.5821 17.6512 18.9712 17.964 20.439C18.1819 21.4586 17.4497 23.1581 16.4102 23.242L15.6781 23.3011M15.6781 23.3011C13.9992 23.3011 11.4004 22.8034 11.4004 22.8034M15.6781 23.3011C18.0066 23.3011 24.1364 22.1949 26.3089 21.7886C26.8273 21.6924 27.3642 21.6215 27.8571 21.8072C28.4772 22.0416 29.3091 22.6074 29.7065 23.9728C30.0173 25.0398 29.2713 26.0662 28.2352 26.467C25.1965 27.6427 18.8598 29.9375 15.6781 29.9375C7.25 29.9375 1.0625 27.8221 1.0625 27.8221M19.7116 14.7988C19.7336 15.4334 20.1269 15.9792 20.7539 16.0755C21.1595 16.1374 21.6951 16.1875 22.375 16.1875C22.9174 16.1915 23.4594 16.154 23.9961 16.0755C24.6231 15.9792 25.0164 15.4334 25.0384 14.7995C25.0638 14.0707 25.0934 12.9412 25.1106 11.3606C26.2571 11.3501 27.4035 11.326 28.5494 11.2884C29.1833 11.2664 29.7292 10.8732 29.8254 10.2462C29.8873 9.84054 29.9375 9.30498 29.9375 8.62504C29.9415 8.0826 29.904 7.54065 29.8254 7.00391C29.7292 6.37691 29.1833 5.98367 28.5494 5.96167C27.8207 5.93623 26.6911 5.90667 25.1106 5.88948C25.1 4.74294 25.0759 3.59657 25.0384 2.4506C25.0164 1.81673 24.6231 1.27085 23.9961 1.1746C23.4594 1.09631 22.9174 1.05884 22.375 1.06254C21.8326 1.05858 21.2906 1.09604 20.7539 1.1746C20.1269 1.27085 19.7336 1.81673 19.7116 2.4506C19.6862 3.17935 19.6566 4.30892 19.6394 5.88948C18.4929 5.90001 17.3465 5.92408 16.2006 5.96167C15.5667 5.98367 15.0208 6.37691 14.9246 7.00391C14.8627 7.40954 14.8125 7.9451 14.8125 8.62504C14.8125 9.30498 14.862 9.84123 14.9246 10.2462C15.0208 10.8732 15.5667 11.2664 16.2006 11.2884C16.9293 11.3139 18.0589 11.3434 19.6394 11.3606C19.6566 12.9412 19.6862 14.0714 19.7116 14.7995V14.7988Z" stroke="white" stroke-width="2.0625" stroke-linecap="round" stroke-linejoin="round"/>
</svg>
