<svg width="33" height="33" viewBox="0 0 33 33" fill="none" xmlns="http://www.w3.org/2000/svg">
<path d="M17.5863 28.8749L4.125 15.4137V18.1637C4.125 18.8924 4.41375 19.5937 4.93625 20.1024L15.6475 30.8137C16.72 31.8862 18.4663 31.8862 19.5387 30.8137L28.0775 22.2749C29.15 21.2024 29.15 19.4562 28.0775 18.3837L17.5863 28.8749Z" fill="white"/>
<path d="M15.6475 23.9387C16.72 25.0112 18.4663 25.0112 19.5387 23.9387L28.0775 15.4C29.15 14.3275 29.15 12.5813 28.0775 11.5087L17.3663 0.7975C16.8439 0.28779 16.1435 0.00171232 15.4137 0L6.875 0C5.3625 0 4.125 1.2375 4.125 2.75V11.2887C4.125 12.0175 4.41375 12.7188 4.93625 13.2275L15.6475 23.9387ZM9.96875 4.125C10.4246 4.125 10.8618 4.30608 11.1841 4.62841C11.5064 4.95074 11.6875 5.38791 11.6875 5.84375C11.6875 6.29959 11.5064 6.73676 11.1841 7.05909C10.8618 7.38142 10.4246 7.5625 9.96875 7.5625C9.51291 7.5625 9.07574 7.38142 8.75341 7.05909C8.43108 6.73676 8.25 6.29959 8.25 5.84375C8.25 5.38791 8.43108 4.95074 8.75341 4.62841C9.07574 4.30608 9.51291 4.125 9.96875 4.125Z" fill="white"/>
</svg>
