<svg width="33" height="33" viewBox="0 0 33 33" fill="none" xmlns="http://www.w3.org/2000/svg">
<path d="M5.5 28.875C4.74375 28.875 4.09658 28.606 3.5585 28.0679C3.02042 27.5298 2.75092 26.8822 2.75 26.125V6.875C2.75 6.11875 3.0195 5.47158 3.5585 4.9335C4.0975 4.39542 4.74467 4.12592 5.5 4.125H13.75C14.5063 4.125 15.1539 4.3945 15.6929 4.9335C16.2319 5.4725 16.5009 6.11967 16.5 6.875V9.625H27.5C28.2563 9.625 28.9039 9.8945 29.4429 10.4335C29.9819 10.9725 30.2509 11.6197 30.25 12.375V26.125C30.25 26.8813 29.981 27.5289 29.4429 28.0679C28.9048 28.6069 28.2572 28.8759 27.5 28.875H5.5ZM5.5 26.125H13.75V23.375H5.5V26.125ZM5.5 20.625H13.75V17.875H5.5V20.625ZM5.5 15.125H13.75V12.375H5.5V15.125ZM5.5 9.625H13.75V6.875H5.5V9.625ZM16.5 26.125H27.5V12.375H16.5V26.125ZM20.625 17.875C20.2354 17.875 19.9091 17.743 19.646 17.479C19.3829 17.215 19.2509 16.8887 19.25 16.5C19.2491 16.1113 19.3811 15.785 19.646 15.521C19.9109 15.257 20.2372 15.125 20.625 15.125H23.375C23.7646 15.125 24.0914 15.257 24.3554 15.521C24.6194 15.785 24.7509 16.1113 24.75 16.5C24.7491 16.8887 24.6171 17.2155 24.354 17.4804C24.0909 17.7453 23.7646 17.8768 23.375 17.875H20.625ZM20.625 23.375C20.2354 23.375 19.9091 23.243 19.646 22.979C19.3829 22.715 19.2509 22.3887 19.25 22C19.2491 21.6113 19.3811 21.285 19.646 21.021C19.9109 20.757 20.2372 20.625 20.625 20.625H23.375C23.7646 20.625 24.0914 20.757 24.3554 21.021C24.6194 21.285 24.7509 21.6113 24.75 22C24.7491 22.3887 24.6171 22.7155 24.354 22.9804C24.0909 23.2453 23.7646 23.3768 23.375 23.375H20.625Z" fill="white"/>
</svg>
