<svg width="29" height="27" viewBox="0 0 29 27" fill="none" xmlns="http://www.w3.org/2000/svg">
<path d="M3.5 21.375V24.125H25.5V21.375H3.5ZM7.625 6.25V3.5C7.625 2.74375 7.8945 2.09658 8.4335 1.5585C8.9725 1.02042 9.61967 0.750917 10.375 0.75H18.625C19.3813 0.75 20.0289 1.0195 20.5679 1.5585C21.1069 2.0975 21.3759 2.74467 21.375 3.5V6.25H25.5C26.2563 6.25 26.9039 6.5195 27.4429 7.0585C27.9819 7.5975 28.2509 8.24467 28.25 9V24.125C28.25 24.8813 27.981 25.5289 27.4429 26.0679C26.9048 26.6069 26.2572 26.8759 25.5 26.875H3.5C2.74375 26.875 2.09658 26.606 1.5585 26.0679C1.02042 25.5298 0.750917 24.8822 0.75 24.125V9C0.75 8.24375 1.0195 7.59658 1.5585 7.0585C2.0975 6.52042 2.74467 6.25092 3.5 6.25H7.625ZM3.5 17.25H25.5V9H21.375V11.75H18.625V9H10.375V11.75H7.625V9H3.5V17.25ZM10.375 6.25H18.625V3.5H10.375V6.25Z" fill="white"/>
</svg>
