<svg width="12" height="15" viewBox="0 0 12 15" fill="none" xmlns="http://www.w3.org/2000/svg">
<path d="M1.99984 14.6666C1.63317 14.6666 1.31939 14.5362 1.0585 14.2753C0.797615 14.0144 0.666948 13.7004 0.666504 13.3333V6.66663C0.666504 6.29996 0.79717 5.98618 1.0585 5.72529C1.31984 5.4644 1.63361 5.33374 1.99984 5.33329H2.6665V3.99996C2.6665 3.07774 2.99161 2.29174 3.64184 1.64196C4.29206 0.992182 5.07806 0.667071 5.99984 0.666626C6.92161 0.666182 7.70784 0.991293 8.3585 1.64196C9.00917 2.29263 9.33406 3.07863 9.33317 3.99996V5.33329H9.99984C10.3665 5.33329 10.6805 5.46396 10.9418 5.72529C11.2032 5.98663 11.3336 6.3004 11.3332 6.66663V13.3333C11.3332 13.7 11.2027 14.014 10.9418 14.2753C10.6809 14.5366 10.3669 14.6671 9.99984 14.6666H1.99984ZM5.99984 11.3333C6.3665 11.3333 6.6805 11.2028 6.94184 10.942C7.20317 10.6811 7.33361 10.3671 7.33317 9.99996C7.33273 9.63285 7.20228 9.31907 6.94184 9.05863C6.68139 8.79818 6.36739 8.66752 5.99984 8.66663C5.63228 8.66574 5.3185 8.7964 5.0585 9.05863C4.7985 9.32085 4.66784 9.63463 4.6665 9.99996C4.66517 10.3653 4.79584 10.6793 5.0585 10.942C5.32117 11.2046 5.63495 11.3351 5.99984 11.3333ZM3.99984 5.33329H7.99984V3.99996C7.99984 3.4444 7.80539 2.97218 7.4165 2.58329C7.02761 2.1944 6.55539 1.99996 5.99984 1.99996C5.44428 1.99996 4.97206 2.1944 4.58317 2.58329C4.19428 2.97218 3.99984 3.4444 3.99984 3.99996V5.33329Z" fill="#154880"/>
</svg>
