<svg width="35" height="35" viewBox="0 0 35 35" fill="none" xmlns="http://www.w3.org/2000/svg">
<g clip-path="url(#clip0_535_565)">
<path fill-rule="evenodd" clip-rule="evenodd" d="M22.906 16.469C23.1794 16.7425 23.333 17.1133 23.333 17.5C23.333 17.8867 23.1794 18.2576 22.906 18.5311L14.6562 26.7809C14.5217 26.9201 14.3608 27.0312 14.1829 27.1077C14.0049 27.1841 13.8136 27.2243 13.6199 27.226C13.4263 27.2277 13.2343 27.1908 13.055 27.1175C12.8758 27.0441 12.713 26.9359 12.5761 26.7989C12.4391 26.662 12.3308 26.4992 12.2575 26.32C12.1842 26.1407 12.1473 25.9487 12.149 25.7551C12.1507 25.5614 12.1909 25.3701 12.2673 25.1921C12.3438 25.0142 12.4549 24.8533 12.5941 24.7188L19.8129 17.5L12.5941 10.2813C12.3285 10.0062 12.1815 9.63785 12.1848 9.25548C12.1881 8.87311 12.3415 8.50734 12.6119 8.23695C12.8823 7.96656 13.2481 7.81319 13.6304 7.80987C14.0128 7.80655 14.3812 7.95354 14.6562 8.21919L22.906 16.469Z" fill="black"/>
</g>
<defs>
<clipPath id="clip0_535_565">
<rect width="35" height="35" fill="white"/>
</clipPath>
</defs>
</svg>
