<svg width="35" height="35" viewBox="0 0 35 35" fill="none" xmlns="http://www.w3.org/2000/svg">
<g clip-path="url(#clip0_535_561)">
<path fill-rule="evenodd" clip-rule="evenodd" d="M12.094 16.469C11.8206 16.7425 11.667 17.1133 11.667 17.5C11.667 17.8867 11.8206 18.2576 12.094 18.5311L20.3438 26.7809C20.4783 26.9201 20.6392 27.0312 20.8171 27.1077C20.9951 27.1841 21.1864 27.2243 21.3801 27.226C21.5737 27.2277 21.7657 27.1908 21.945 27.1175C22.1242 27.0441 22.287 26.9359 22.4239 26.7989C22.5609 26.662 22.6692 26.4992 22.7425 26.32C22.8158 26.1407 22.8527 25.9487 22.851 25.7551C22.8493 25.5614 22.8091 25.3701 22.7327 25.1921C22.6562 25.0142 22.5451 24.8533 22.4059 24.7188L15.1871 17.5L22.4059 10.2813C22.6715 10.0062 22.8185 9.63785 22.8152 9.25548C22.8119 8.87311 22.6585 8.50734 22.3881 8.23695C22.1177 7.96656 21.7519 7.81319 21.3696 7.80987C20.9872 7.80655 20.6188 7.95354 20.3438 8.21919L12.094 16.469Z" fill="black"/>
</g>
<defs>
<clipPath id="clip0_535_561">
<rect width="35" height="35" fill="white" transform="matrix(-1 0 0 1 35 0)"/>
</clipPath>
</defs>
</svg>
