<svg width="26" height="26" viewBox="0 0 26 26" fill="none" xmlns="http://www.w3.org/2000/svg">
<g clip-path="url(#clip0_51_69)">
<path fill-rule="evenodd" clip-rule="evenodd" d="M13.7659 17.0159C13.5628 17.219 13.2873 17.3331 13 17.3331C12.7127 17.3331 12.4372 17.219 12.2341 17.0159L6.10566 10.8875C6.00219 10.7876 5.91966 10.668 5.86289 10.5359C5.80611 10.4037 5.77622 10.2615 5.77497 10.1177C5.77372 9.97384 5.80113 9.83118 5.85561 9.69805C5.91008 9.56491 5.99052 9.44395 6.09223 9.34223C6.19395 9.24052 6.31491 9.16008 6.44804 9.1056C6.58118 9.05113 6.72384 9.02372 6.86768 9.02497C7.01152 9.02622 7.15368 9.05611 7.28585 9.11289C7.41802 9.16966 7.53756 9.25219 7.6375 9.35566L13 14.7182L18.3625 9.35566C18.5668 9.15832 18.8405 9.04913 19.1245 9.0516C19.4086 9.05407 19.6803 9.168 19.8811 9.36886C20.082 9.56972 20.1959 9.84143 20.1984 10.1255C20.2009 10.4095 20.0917 10.6832 19.8943 10.8875L13.7659 17.0159Z" fill="black"/>
</g>
<defs>
<clipPath id="clip0_51_69">
<rect width="26" height="26" fill="white"/>
</clipPath>
</defs>
</svg>
