<svg width="25" height="25" viewBox="0 0 25 25" fill="none" xmlns="http://www.w3.org/2000/svg">
<g clip-path="url(#clip0_56_124)">
<path fill-rule="evenodd" clip-rule="evenodd" d="M13.2366 16.3615C13.0413 16.5567 12.7764 16.6664 12.5002 16.6664C12.2239 16.6664 11.959 16.5567 11.7637 16.3615L5.87099 10.4688C5.7715 10.3727 5.69214 10.2577 5.63755 10.1306C5.58296 10.0035 5.55422 9.86686 5.55302 9.72854C5.55182 9.59023 5.57817 9.45307 5.63055 9.32505C5.68292 9.19703 5.76027 9.08073 5.85808 8.98292C5.95588 8.88512 6.07218 8.80777 6.2002 8.75539C6.32822 8.70302 6.46539 8.67666 6.6037 8.67787C6.74201 8.67907 6.8787 8.7078 7.00578 8.7624C7.13287 8.81699 7.24781 8.89634 7.3439 8.99583L12.5002 14.1521L17.6564 8.99583C17.8529 8.80609 18.116 8.70109 18.3891 8.70347C18.6622 8.70584 18.9235 8.81539 19.1166 9.00852C19.3098 9.20166 19.4193 9.46292 19.4217 9.73604C19.4241 10.0092 19.3191 10.2723 19.1293 10.4688L13.2366 16.3615Z" fill="white"/>
</g>
<defs>
<clipPath id="clip0_56_124">
<rect x="0.000183105" width="25" height="25" rx="5" fill="white"/>
</clipPath>
</defs>
</svg>
