<svg width="11" height="15" viewBox="0 0 11 15" fill="none" xmlns="http://www.w3.org/2000/svg">
<path d="M1.95866 13.875C1.56908 13.875 1.23569 13.7364 0.958492 13.4592C0.681298 13.182 0.542464 12.8484 0.541992 12.4583V4.66666C0.541992 4.27707 0.680825 3.94368 0.958492 3.66649C1.23616 3.3893 1.56955 3.25046 1.95866 3.24999H3.37533V1.83332C3.37533 1.44374 3.51416 1.11035 3.79183 0.833157C4.06949 0.555962 4.40288 0.417129 4.79199 0.416656H6.20866C6.59824 0.416656 6.93187 0.55549 7.20954 0.833157C7.4872 1.11082 7.6258 1.44421 7.62533 1.83332V3.24999H9.04199C9.43158 3.24999 9.7652 3.38882 10.0429 3.66649C10.3205 3.94416 10.4591 4.27755 10.4587 4.66666V12.4583C10.4587 12.8479 10.3201 13.1815 10.0429 13.4592C9.76567 13.7369 9.43205 13.8755 9.04199 13.875C9.04199 14.0757 8.97399 14.244 8.83799 14.38C8.70199 14.516 8.53388 14.5838 8.33366 14.5833C8.13344 14.5829 7.96533 14.5149 7.82933 14.3793C7.69333 14.2438 7.62533 14.0757 7.62533 13.875H3.37533C3.37533 14.0757 3.30733 14.244 3.17133 14.38C3.03533 14.516 2.86721 14.5838 2.66699 14.5833C2.46677 14.5829 2.29866 14.5149 2.16266 14.3793C2.02666 14.2438 1.95866 14.0757 1.95866 13.875ZM1.95866 12.4583H9.04199V4.66666H1.95866V12.4583ZM3.37533 11.75H4.79199V5.37499H3.37533V11.75ZM6.20866 11.75H7.62533V5.37499H6.20866V11.75ZM4.79199 3.24999H6.20866V1.83332H4.79199V3.24999Z" fill="black"/>
</svg>
