<svg width="15" height="15" viewBox="0 0 15 15" fill="none" xmlns="http://www.w3.org/2000/svg">
<path d="M13.875 7.5C13.875 8.33718 13.7101 9.16616 13.3897 9.93961C13.0694 10.7131 12.5998 11.4158 12.0078 12.0078C11.4158 12.5998 10.7131 13.0694 9.93961 13.3897C9.16616 13.7101 8.33718 13.875 7.5 13.875C6.66282 13.875 5.83384 13.7101 5.06039 13.3897C4.28694 13.0694 3.58417 12.5998 2.99219 12.0078C2.40022 11.4158 1.93064 10.7131 1.61027 9.93961C1.28989 9.16616 1.125 8.33718 1.125 7.5C1.125 5.80924 1.79665 4.18774 2.99219 2.99219C4.18774 1.79665 5.80924 1.125 7.5 1.125C9.19075 1.125 10.8123 1.79665 12.0078 2.99219C13.2033 4.18774 13.875 5.80924 13.875 7.5Z" stroke="#00BBF2" stroke-width="1.0625" stroke-linecap="round" stroke-linejoin="round"/>
<path d="M5.375 4.3125H9.625M5.375 6.28025H9.625M8.38542 11.3958L5.375 8.248H6.4375C8.79908 8.248 8.79908 4.3125 6.4375 4.3125" stroke="#00BBF2" stroke-width="1.0625" stroke-linecap="round" stroke-linejoin="round"/>
</svg>
