<svg width="20" height="20" viewBox="0 0 20 20" fill="none" xmlns="http://www.w3.org/2000/svg">
<path d="M12.7333 13.9083L15.1167 11.5667L15.7 12.15L12.7333 15.1167L10.975 13.3333L11.5667 12.7333L12.7333 13.9083ZM6.66667 17.5C6.22464 17.5 5.80072 17.3244 5.48816 17.0118C5.17559 16.6993 5 16.2754 5 15.8333V7.49999C5 7.05796 5.17559 6.63404 5.48816 6.32148C5.80072 6.00892 6.22464 5.83332 6.66667 5.83332V17.5ZM7.5 5.83332H11.6667V3.33332C11.2246 3.33332 10.8007 3.15773 10.4882 2.84517C10.1756 2.53261 10 2.10868 10 1.66666H13.3333V8.33332C14.6594 8.33332 15.9312 8.86011 16.8689 9.79779C17.8066 10.7355 18.3333 12.0072 18.3333 13.3333C18.3333 14.6594 17.8066 15.9312 16.8689 16.8689C15.9312 17.8065 14.6594 18.3333 13.3333 18.3333C12.3083 18.3333 11.3583 18.025 10.5667 17.5H7.5V5.83332ZM13.3333 9.99999C12.4493 9.99999 11.6014 10.3512 10.9763 10.9763C10.3512 11.6014 10 12.4493 10 13.3333C10 14.2174 10.3512 15.0652 10.9763 15.6903C11.6014 16.3155 12.4493 16.6667 13.3333 16.6667C14.2174 16.6667 15.0652 16.3155 15.6904 15.6903C16.3155 15.0652 16.6667 14.2174 16.6667 13.3333C16.6667 12.4493 16.3155 11.6014 15.6904 10.9763C15.0652 10.3512 14.2174 9.99999 13.3333 9.99999Z" fill="black"/>
</svg>
