<svg width="12" height="15" viewBox="0 0 12 15" fill="none" xmlns="http://www.w3.org/2000/svg">
<path d="M6.82333 10.8221L8.84917 8.83166L9.345 9.32749L6.82333 11.8492L5.32875 10.3333L5.83167 9.82332L6.82333 10.8221ZM1.66667 13.875C1.29094 13.875 0.930609 13.7257 0.664932 13.4601C0.399255 13.1944 0.25 12.834 0.25 12.4583V5.37499C0.25 4.99927 0.399255 4.63893 0.664932 4.37326C0.930609 4.10758 1.29094 3.95832 1.66667 3.95832V13.875ZM2.375 3.95832H5.91667V1.83332C5.54094 1.83332 5.18061 1.68407 4.91493 1.41839C4.64926 1.15271 4.5 0.79238 4.5 0.416656H7.33333V6.08332C8.4605 6.08332 9.54151 6.53109 10.3385 7.32812C11.1356 8.12515 11.5833 9.20615 11.5833 10.3333C11.5833 11.4605 11.1356 12.5415 10.3385 13.3385C9.54151 14.1356 8.4605 14.5833 7.33333 14.5833C6.46208 14.5833 5.65458 14.3212 4.98167 13.875H2.375V3.95832ZM7.33333 7.49999C6.58189 7.49999 5.86122 7.7985 5.32986 8.32985C4.79851 8.86121 4.5 9.58188 4.5 10.3333C4.5 11.0848 4.79851 11.8054 5.32986 12.3368C5.86122 12.8681 6.58189 13.1667 7.33333 13.1667C8.08478 13.1667 8.80545 12.8681 9.3368 12.3368C9.86815 11.8054 10.1667 11.0848 10.1667 10.3333C10.1667 9.58188 9.86815 8.86121 9.3368 8.32985C8.80545 7.7985 8.08478 7.49999 7.33333 7.49999Z" fill="#00BBF2"/>
</svg>
