<svg width="17" height="17" viewBox="0 0 17 17" fill="none" xmlns="http://www.w3.org/2000/svg">
<path d="M14.7946 1.85938L14.7937 14.6211C15.0222 14.997 15.2586 15.1416 15.4568 15.1406C15.6535 15.1397 15.8873 14.9934 16.1114 14.6287L15.4996 8.11053L15.4924 8.03114L15.5414 7.96785C16.2444 7.06576 16.4901 5.50724 16.2896 4.18901C16.1893 3.52986 15.9794 2.93326 15.6854 2.51152C15.4389 2.15784 15.1449 1.93222 14.7947 1.85938H14.7946ZM2.43058 1.85951L2.43005 4.08833L2.01302 4.0878V1.85964H1.53805L1.53812 4.0879H1.12049V1.85964H0.636719V5.28713C0.636686 5.66621 0.843574 5.87642 1.1693 6.00638L1.3041 6.06023L1.30111 6.20533C1.23471 9.01332 1.16906 11.8213 1.10316 14.6292C1.33027 15.0008 1.56355 15.1416 1.75779 15.1406C1.95203 15.1397 2.18511 14.9953 2.40933 14.6282C2.33244 11.821 2.25561 9.01374 2.17887 6.20646L2.17489 6.06037L2.31012 6.00704C2.65291 5.87071 2.87587 5.63935 2.87587 5.28733V1.85951H2.43058ZM8.49968 3.1543C7.08191 3.1543 5.72221 3.7175 4.7197 4.72002C3.71719 5.72253 3.15398 7.08223 3.15398 8.5C3.15398 9.91777 3.71719 11.2775 4.7197 12.28C5.72221 13.2825 7.08191 13.8457 8.49968 13.8457C9.91745 13.8457 11.2772 13.2825 12.2797 12.28C13.2822 11.2775 13.8454 9.91777 13.8454 8.5C13.8454 7.08223 13.2822 5.72253 12.2797 4.72002C11.2772 3.7175 9.91745 3.1543 8.49968 3.1543Z" fill="#00BBF2"/>
</svg>
