<svg width="17" height="17" viewBox="0 0 17 17" fill="none" xmlns="http://www.w3.org/2000/svg">
<path d="M6.02077 4.25003C5.63118 4.25003 5.2978 4.11143 5.0206 3.83423C4.74341 3.55704 4.60457 3.22341 4.6041 2.83336C4.60363 2.4433 4.74246 2.10991 5.0206 1.83319C5.29874 1.55647 5.63213 1.41764 6.02077 1.41669C6.40941 1.41575 6.74303 1.55458 7.02164 1.83319C7.30025 2.1118 7.43885 2.44519 7.43743 2.83336C7.43602 3.22152 7.29742 3.55515 7.02164 3.83423C6.74587 4.11332 6.41224 4.25191 6.02077 4.25003ZM9.20827 14.1667H5.34785C4.95827 14.1667 4.60127 14.0281 4.27685 13.7509C3.95244 13.4737 3.74867 13.1401 3.66556 12.75L2.28431 5.80836C2.23709 5.58405 2.28431 5.38643 2.42598 5.21548C2.56764 5.04454 2.75653 4.95883 2.99264 4.95836C3.15792 4.95836 3.30549 5.01148 3.43535 5.11773C3.56521 5.22398 3.64785 5.35975 3.68327 5.52502L5.13535 12.75H9.20827C9.40896 12.75 9.57731 12.818 9.71331 12.954C9.84931 13.09 9.91707 13.2581 9.9166 13.4584C9.91613 13.6586 9.84813 13.8269 9.7126 13.9634C9.57707 14.0999 9.40896 14.1676 9.20827 14.1667ZM13.4583 14.9636L11.7583 12.0417H6.83535C6.49299 12.0417 6.19478 11.9385 5.94073 11.7321C5.68667 11.5258 5.52446 11.2512 5.4541 10.9084L4.67493 7.11877C4.54507 6.55211 4.678 6.05037 5.07373 5.61357C5.46945 5.17676 5.95041 4.95836 6.5166 4.95836C6.9298 4.95836 7.30474 5.08232 7.64144 5.33023C7.97813 5.57815 8.19346 5.91461 8.28743 6.33961L9.0666 9.91669H11.3687C11.6166 9.91669 11.8468 9.98162 12.0593 10.1115C12.2718 10.2413 12.443 10.4125 12.5729 10.625L14.6979 14.2552C14.7923 14.4205 14.8131 14.6007 14.7602 14.7957C14.7073 14.9907 14.598 15.1352 14.4322 15.2292C14.2665 15.3232 14.0863 15.3439 13.8918 15.2915C13.6972 15.2391 13.5527 15.1298 13.4583 14.9636Z" fill="#00BBF2"/>
</svg>
