<svg width="27" height="27" viewBox="0 0 27 27" fill="none" xmlns="http://www.w3.org/2000/svg">
<path d="M0.300781 13.5C0.300781 9.99915 1.69149 6.64167 4.16697 4.16619C6.64245 1.69071 9.99992 0.300003 13.5008 0.300003C17.0016 0.300003 20.3591 1.69071 22.8346 4.16619C25.3101 6.64167 26.7008 9.99915 26.7008 13.5C26.7008 17.0009 25.3101 20.3583 22.8346 22.8338C20.3591 25.3093 17.0016 26.7 13.5008 26.7C9.99992 26.7 6.64245 25.3093 4.16697 22.8338C1.69149 20.3583 0.300781 17.0009 0.300781 13.5ZM12.4497 7.13925C12.2915 6.98613 12.08 6.90051 11.8599 6.90051C11.6397 6.90051 11.4282 6.98613 11.27 7.13925C11.1928 7.21416 11.1314 7.30379 11.0895 7.40285C11.0476 7.50191 11.026 7.60837 11.026 7.71593C11.026 7.82349 11.0476 7.92995 11.0895 8.02901C11.1314 8.12806 11.1928 8.2177 11.27 8.2926C11.9682 8.969 12.5233 9.7788 12.9024 10.6739C13.2815 11.569 13.4768 12.5312 13.4768 13.5033C13.4768 14.4754 13.2815 15.4376 12.9024 16.3327C12.5233 17.2278 11.9682 18.0376 11.27 18.714C11.1928 18.7889 11.1314 18.8785 11.0895 18.9776C11.0476 19.0767 11.026 19.1831 11.026 19.2907C11.026 19.3982 11.0476 19.5047 11.0895 19.6038C11.1314 19.7028 11.1928 19.7924 11.27 19.8674C11.4282 20.0205 11.6397 20.1061 11.8599 20.1061C12.08 20.1061 12.2915 20.0205 12.4497 19.8674C13.3025 19.0413 13.9805 18.0522 14.4436 16.959C14.9066 15.8657 15.1452 14.6906 15.1452 13.5033C15.1452 12.316 14.9066 11.1409 14.4436 10.0476C13.9805 8.95438 13.3025 7.96534 12.4497 7.13925ZM7.14003 8.7942C6.9868 8.95266 6.90114 9.16447 6.90114 9.3849C6.90114 9.60534 6.9868 9.81714 7.14003 9.9756C8.05436 10.9204 8.56554 12.1836 8.56554 13.4984C8.56554 14.8131 8.05436 16.0763 7.14003 17.0211C6.9868 17.1796 6.90114 17.3914 6.90114 17.6118C6.90114 17.8322 6.9868 18.044 7.14003 18.2025C7.21479 18.2796 7.30429 18.341 7.40321 18.3829C7.50213 18.4248 7.60846 18.4463 7.71588 18.4463C7.8233 18.4463 7.92963 18.4248 8.02855 18.3829C8.12748 18.341 8.21697 18.2796 8.29173 18.2025C10.8294 15.6054 10.8294 11.393 8.29173 8.7942C8.21697 8.71706 8.12748 8.65573 8.02855 8.61384C7.92963 8.57195 7.8233 8.55037 7.71588 8.55037C7.60846 8.55037 7.50213 8.57195 7.40321 8.61384C7.30429 8.65573 7.21479 8.71706 7.14003 8.7942ZM16.5945 5.48595C16.4319 5.33507 16.2182 5.25123 15.9964 5.25123C15.7746 5.25123 15.5609 5.33507 15.3983 5.48595C15.3203 5.55853 15.2582 5.64638 15.2157 5.74403C15.1731 5.84168 15.1512 5.94705 15.1512 6.05355C15.1512 6.16006 15.1731 6.26542 15.2157 6.36308C15.2582 6.46073 15.3203 6.54858 15.3983 6.62115C19.4028 10.4195 19.4028 16.5789 15.3983 20.3772C15.0683 20.6907 15.0683 21.1989 15.3983 21.5141C15.7283 21.8292 16.2645 21.8276 16.5962 21.5141C21.2607 17.0871 21.2607 9.91125 16.5962 5.48595" fill="white"/>
</svg>
